<svg data-version="clipboard" use-custom-elements="" xmlns="http://www.w3.org/2000/svg" xmlns:xlink="http://www.w3.org/1999/xlink" x="0" y="0" height="80%" width="90%" style="position: absolute; left: 0; top:0; right: 0; bottom:0;" id="IDI_1b05p6a" class="showed" data-unit-key="MILLIMETER" data-drawing-scale="1"><defs>
    </defs><g transform="matrix(1, 0, 0, 1, 207.176, 443.064)" class=""><path d="M62.325256 0.862633L12.939500-158.940186L42.484690-158.940186L75.911731-34.289674L75.911731 0.862633L62.325256 0.862633ZM84.753722-41.190740L118.396421-158.940186L147.725953-158.940186L95.967955 0.862633L84.753722 0.862633L84.753722-41.190740Z" stroke-width="18.4028438005477" stroke="none" fill="#fff" opacity="1" fill-opacity="1" stroke-opacity="1" transform="matrix(1, 0, 0, 1, 0, 0)"/><path d="M176.839827-80.224897L176.839827-80.224897Q176.839827-99.418488 181.476481-114.191084Q186.113135-128.963679 194.415981-139.207449Q202.718826-149.451220 214.040888-154.950507Q225.362950-160.449794 238.733767-161.312428L238.733767-161.312428L238.733767-139.746595Q231.401384-138.883962 224.931634-135.217770Q218.461884-131.551579 213.717401-124.434854Q208.972918-117.318129 206.169359-106.319555Q203.365801-95.320980 203.150143-80.224897L203.150143-80.224897Q203.365801-64.913156 206.169359-54.022411Q208.972918-43.131665 213.825230-35.799282Q218.677542-28.466899 225.147292-24.692878Q231.617042-20.918858 238.733767-20.271883L238.733767-20.271883L238.733767 1.078292Q225.578609 0.215658 214.148718-5.283629Q202.718826-10.782916 194.415981-21.026687Q186.113135-31.270457 181.476481-46.150882Q176.839827-61.031306 176.839827-80.224897ZM247.360100-139.962253L247.360100-161.312428Q260.515258-160.665453 271.837320-155.058336Q283.159382-149.451220 291.462227-139.207449Q299.765073-128.963679 304.509556-114.191084Q309.254039-99.418488 309.254039-80.224897L309.254039-80.224897Q309.254039-61.031306 304.509556-46.150882Q299.765073-31.270457 291.462227-21.026687Q283.159382-10.782916 271.945149-5.283629Q260.730916 0.215658 247.360100 1.078292L247.360100 1.078292L247.360100-20.271883Q254.692483-21.134516 261.162233-24.908537Q267.631982-28.682557 272.376465-35.907111Q277.120949-43.131665 279.924507-54.022411Q282.728065-64.913156 282.943723-80.224897L282.943723-80.224897Q282.728065-95.536638 279.924507-106.427384Q277.120949-117.318129 272.268636-124.542683Q267.416324-131.767237 260.946574-135.541258Q254.476824-139.315278 247.360100-139.962253L247.360100-139.962253Z" stroke-width="18.4028438005477" stroke="none" fill="#fff" opacity="1" fill-opacity="1" stroke-opacity="1" transform="matrix(1, 0, 0, 1, 0, 0)"/><path d="M345.915955-158.940186L372.226270-158.940186L372.226270-19.624908L445.334443-19.624908L445.334443 0L345.915955 0L345.915955-158.940186Z" stroke-width="18.4028438005477" stroke="none" fill="#fff" opacity="1" fill-opacity="1" stroke-opacity="1" transform="matrix(1, 0, 0, 1, 0, 0)" class=""/><path d="M498.386391-158.940186L498.386391 0L472.076075 0L472.076075-158.940186L498.386391-158.940186Z" stroke-width="18.4028438005477" stroke="none" fill="#fff" opacity="1" fill-opacity="1" stroke-opacity="1" transform="matrix(1, 0, 0, 1, 0, 0)"/><path d="M613.116620-158.724528L668.325152 0L641.583519 0L600.392779-119.043396L558.770722 0L531.813431 0L587.453279-158.724528L613.116620-158.724528ZM585.728013-50.464048L614.626228-50.464048L620.880320-32.995724L579.689580-32.995724L585.728013-50.464048Z" stroke-width="18.4028438005477" stroke="none" fill="#fff" opacity="1" fill-opacity="1" stroke-opacity="1" transform="matrix(1, 0, 0, 1, 0, 0)"/></g></svg>